<mxfile host="app.diagrams.net" agent="Mozilla/5.0 (Windows NT 10.0; Win64; x64) AppleWebKit/537.36 (KHTML, like Gecko) Chrome/129.0.0.0 Safari/537.36" version="24.7.17">
  <diagram name="Page-1" id="PWA3DkRN9-AQg8b2g-kF">
    <mxGraphModel dx="1595" dy="871" grid="1" gridSize="10" guides="1" tooltips="1" connect="1" arrows="1" fold="1" page="1" pageScale="1" pageWidth="850" pageHeight="1100" math="0" shadow="0">
      <root>
        <mxCell id="0" />
        <mxCell id="1" parent="0" />
        <mxCell id="l-PFF9nlEcGNIyutVLnM-8" value="" style="rounded=0;whiteSpace=wrap;html=1;" vertex="1" parent="1">
          <mxGeometry x="390" y="50" width="180" height="170" as="geometry" />
        </mxCell>
        <mxCell id="l-PFF9nlEcGNIyutVLnM-17" value="Igal investeeringul võib olla mitu tehingut,&lt;div&gt;aga iga tehing viitab vaid ühele investeeringule.&lt;/div&gt;" style="edgeStyle=orthogonalEdgeStyle;rounded=0;orthogonalLoop=1;jettySize=auto;html=1;entryX=0.5;entryY=0;entryDx=0;entryDy=0;" edge="1" parent="1" source="l-PFF9nlEcGNIyutVLnM-9" target="l-PFF9nlEcGNIyutVLnM-14">
          <mxGeometry relative="1" as="geometry" />
        </mxCell>
        <mxCell id="l-PFF9nlEcGNIyutVLnM-9" value="2. Investeering&lt;div&gt;Omadused:&lt;/div&gt;&lt;div&gt;&lt;div&gt;&lt;ul&gt;&lt;li&gt;ID (int)&lt;/li&gt;&lt;li&gt;Nimi (string)&lt;/li&gt;&lt;li&gt;Tüüp (string) (nt aktsiad, kinnisvara, võlakirjad)&lt;/li&gt;&lt;li&gt;Alguskuupäev (Date)&lt;/li&gt;&lt;li&gt;Algne summa (float)&lt;/li&gt;&lt;li&gt;Praegune väärtus (float)&lt;/li&gt;&lt;/ul&gt;&lt;/div&gt;&lt;/div&gt;&lt;div&gt;&lt;br&gt;&lt;/div&gt;" style="text;strokeColor=none;align=left;fillColor=none;html=1;verticalAlign=middle;whiteSpace=wrap;rounded=0;" vertex="1" parent="1">
          <mxGeometry x="390" y="50" width="180" height="190" as="geometry" />
        </mxCell>
        <mxCell id="l-PFF9nlEcGNIyutVLnM-10" value="" style="rounded=0;whiteSpace=wrap;html=1;" vertex="1" parent="1">
          <mxGeometry x="30" y="345" width="170" height="140" as="geometry" />
        </mxCell>
        <mxCell id="l-PFF9nlEcGNIyutVLnM-15" value="&lt;p style=&quot;line-height: 90%;&quot;&gt;Igal kasutajal võib olla mitu portfelli,&amp;nbsp;&lt;/p&gt;&lt;p style=&quot;line-height: 90%;&quot;&gt;aga iga portfell kuulub vaid ühele kasutajale.&lt;/p&gt;" style="edgeStyle=orthogonalEdgeStyle;rounded=0;orthogonalLoop=1;jettySize=auto;html=1;entryX=0.5;entryY=1;entryDx=0;entryDy=0;" edge="1" parent="1" source="l-PFF9nlEcGNIyutVLnM-11" target="l-PFF9nlEcGNIyutVLnM-13">
          <mxGeometry relative="1" as="geometry" />
        </mxCell>
        <mxCell id="l-PFF9nlEcGNIyutVLnM-11" value="1. Kasutaja&lt;div&gt;Omadused:&lt;/div&gt;&lt;div&gt;&lt;div&gt;&lt;ul&gt;&lt;li&gt;ID (int)&lt;/li&gt;&lt;li&gt;Nimi (string)&lt;/li&gt;&lt;li&gt;E-post (string)&lt;/li&gt;&lt;li&gt;Parool (string)&lt;/li&gt;&lt;/ul&gt;&lt;/div&gt;&lt;/div&gt;" style="text;strokeColor=none;align=left;fillColor=none;html=1;verticalAlign=middle;whiteSpace=wrap;rounded=0;" vertex="1" parent="1">
          <mxGeometry x="30" y="355" width="170" height="120" as="geometry" />
        </mxCell>
        <mxCell id="l-PFF9nlEcGNIyutVLnM-12" value="" style="rounded=0;whiteSpace=wrap;html=1;" vertex="1" parent="1">
          <mxGeometry x="590" y="510" width="190" height="120" as="geometry" />
        </mxCell>
        <mxCell id="l-PFF9nlEcGNIyutVLnM-16" value="Igal portfellil võib olla mitu investeeringut,&amp;nbsp;&lt;div&gt;aga iga investeering kuulub vaid ühele portfellile.&lt;/div&gt;" style="edgeStyle=orthogonalEdgeStyle;rounded=0;orthogonalLoop=1;jettySize=auto;html=1;entryX=-0.005;entryY=0.436;entryDx=0;entryDy=0;entryPerimeter=0;exitX=0.474;exitY=0;exitDx=0;exitDy=0;exitPerimeter=0;" edge="1" parent="1" source="l-PFF9nlEcGNIyutVLnM-13" target="l-PFF9nlEcGNIyutVLnM-9">
          <mxGeometry relative="1" as="geometry">
            <mxPoint x="680" y="480" as="sourcePoint" />
            <mxPoint x="380" y="149.94" as="targetPoint" />
            <Array as="points">
              <mxPoint x="680" y="460" />
              <mxPoint x="540" y="460" />
              <mxPoint x="540" y="400" />
              <mxPoint x="460" y="400" />
              <mxPoint x="460" y="310" />
              <mxPoint x="330" y="310" />
              <mxPoint x="330" y="130" />
              <mxPoint x="380" y="130" />
              <mxPoint x="380" y="133" />
            </Array>
          </mxGeometry>
        </mxCell>
        <mxCell id="l-PFF9nlEcGNIyutVLnM-13" value="3. Portfell&lt;div&gt;Omadused:&lt;/div&gt;&lt;div&gt;&lt;div&gt;&lt;ul&gt;&lt;li&gt;ID (int)&lt;/li&gt;&lt;li&gt;KasutajaID (int)&lt;/li&gt;&lt;li&gt;LoodudKuupäev (Date)&lt;/li&gt;&lt;li&gt;KokkuVäärtus (float)&lt;/li&gt;&lt;/ul&gt;&lt;/div&gt;&lt;/div&gt;" style="text;strokeColor=none;align=left;fillColor=none;html=1;verticalAlign=middle;whiteSpace=wrap;rounded=0;" vertex="1" parent="1">
          <mxGeometry x="590" y="510" width="190" height="120" as="geometry" />
        </mxCell>
        <mxCell id="l-PFF9nlEcGNIyutVLnM-14" value="4. Tehing&lt;div&gt;Omadused:&lt;/div&gt;&lt;div&gt;&lt;div&gt;&lt;ul&gt;&lt;li&gt;ID (int)&lt;/li&gt;&lt;li&gt;InvesteeringID (int)&lt;/li&gt;&lt;li&gt;Kuupäev (Date)&lt;/li&gt;&lt;li&gt;Kogus (int)&lt;/li&gt;&lt;li&gt;Hind (float)&lt;/li&gt;&lt;/ul&gt;&lt;/div&gt;&lt;/div&gt;" style="rounded=0;whiteSpace=wrap;html=1;align=left;" vertex="1" parent="1">
          <mxGeometry x="860" y="310" width="180" height="130" as="geometry" />
        </mxCell>
      </root>
    </mxGraphModel>
  </diagram>
</mxfile>
